<svg width="281" height="45" viewBox="0 0 281 45" fill="none" xmlns="http://www.w3.org/2000/svg">
<path d="M15.423 15.5852L20.8286 12.4677L17.8113 7.24429H46.1887L32.0046 31.8204L28.9872 26.588L23.5816 29.7147L32.0046 44.3001L57 1H7L15.423 15.5852Z" fill="#9A50F0"/>
<path d="M90.056 9.8L78.896 35H76.268L65.108 9.8H67.988L77.636 31.688L87.356 9.8H90.056ZM93.0679 16.064H95.6239V35H93.0679V16.064ZM94.3639 11.924C93.8359 11.924 93.3919 11.744 93.0319 11.384C92.6719 11.024 92.4919 10.592 92.4919 10.088C92.4919 9.608 92.6719 9.188 93.0319 8.828C93.3919 8.468 93.8359 8.288 94.3639 8.288C94.8919 8.288 95.3359 8.468 95.6959 8.828C96.0559 9.164 96.2359 9.572 96.2359 10.052C96.2359 10.58 96.0559 11.024 95.6959 11.384C95.3359 11.744 94.8919 11.924 94.3639 11.924ZM120.016 8.288V35H117.568V31.256C116.8 32.528 115.78 33.5 114.508 34.172C113.26 34.844 111.844 35.18 110.26 35.18C108.484 35.18 106.876 34.772 105.436 33.956C103.996 33.14 102.868 32 102.052 30.536C101.236 29.072 100.828 27.404 100.828 25.532C100.828 23.66 101.236 21.992 102.052 20.528C102.868 19.064 103.996 17.936 105.436 17.144C106.876 16.328 108.484 15.92 110.26 15.92C111.796 15.92 113.176 16.244 114.4 16.892C115.648 17.516 116.668 18.44 117.46 19.664V8.288H120.016ZM110.476 32.912C111.796 32.912 112.984 32.612 114.04 32.012C115.12 31.388 115.96 30.512 116.56 29.384C117.184 28.256 117.496 26.972 117.496 25.532C117.496 24.092 117.184 22.808 116.56 21.68C115.96 20.552 115.12 19.688 114.04 19.088C112.984 18.464 111.796 18.152 110.476 18.152C109.132 18.152 107.92 18.464 106.84 19.088C105.784 19.688 104.944 20.552 104.32 21.68C103.72 22.808 103.42 24.092 103.42 25.532C103.42 26.972 103.72 28.256 104.32 29.384C104.944 30.512 105.784 31.388 106.84 32.012C107.92 32.612 109.132 32.912 110.476 32.912ZM143.622 26.324H127.782C127.926 28.292 128.682 29.888 130.05 31.112C131.418 32.312 133.146 32.912 135.234 32.912C136.41 32.912 137.49 32.708 138.474 32.3C139.458 31.868 140.31 31.244 141.03 30.428L142.47 32.084C141.63 33.092 140.574 33.86 139.302 34.388C138.054 34.916 136.674 35.18 135.162 35.18C133.218 35.18 131.49 34.772 129.978 33.956C128.49 33.116 127.326 31.964 126.486 30.5C125.646 29.036 125.226 27.38 125.226 25.532C125.226 23.684 125.622 22.028 126.414 20.564C127.23 19.1 128.334 17.96 129.726 17.144C131.142 16.328 132.726 15.92 134.478 15.92C136.23 15.92 137.802 16.328 139.194 17.144C140.586 17.96 141.678 19.1 142.47 20.564C143.262 22.004 143.658 23.66 143.658 25.532L143.622 26.324ZM134.478 18.116C132.654 18.116 131.118 18.704 129.87 19.88C128.646 21.032 127.95 22.544 127.782 24.416H141.21C141.042 22.544 140.334 21.032 139.086 19.88C137.862 18.704 136.326 18.116 134.478 18.116ZM156.601 35.18C154.777 35.18 153.133 34.772 151.669 33.956C150.205 33.116 149.053 31.964 148.213 30.5C147.373 29.036 146.953 27.38 146.953 25.532C146.953 23.684 147.373 22.028 148.213 20.564C149.053 19.1 150.205 17.96 151.669 17.144C153.133 16.328 154.777 15.92 156.601 15.92C158.425 15.92 160.069 16.328 161.533 17.144C162.997 17.96 164.137 19.1 164.953 20.564C165.793 22.028 166.213 23.684 166.213 25.532C166.213 27.38 165.793 29.036 164.953 30.5C164.137 31.964 162.997 33.116 161.533 33.956C160.069 34.772 158.425 35.18 156.601 35.18ZM156.601 32.912C157.945 32.912 159.145 32.612 160.201 32.012C161.281 31.388 162.121 30.512 162.721 29.384C163.321 28.256 163.621 26.972 163.621 25.532C163.621 24.092 163.321 22.808 162.721 21.68C162.121 20.552 161.281 19.688 160.201 19.088C159.145 18.464 157.945 18.152 156.601 18.152C155.257 18.152 154.045 18.464 152.965 19.088C151.909 19.688 151.069 20.552 150.445 21.68C149.845 22.808 149.545 24.092 149.545 25.532C149.545 26.972 149.845 28.256 150.445 29.384C151.069 30.512 151.909 31.388 152.965 32.012C154.045 32.612 155.257 32.912 156.601 32.912Z" fill="#1F1031"/>
<path d="M188.459 22.112H192.887V32.156C191.591 33.188 190.079 33.98 188.351 34.532C186.623 35.084 184.847 35.36 183.023 35.36C180.455 35.36 178.139 34.808 176.075 33.704C174.011 32.576 172.391 31.028 171.215 29.06C170.039 27.092 169.451 24.872 169.451 22.4C169.451 19.928 170.039 17.708 171.215 15.74C172.391 13.772 174.011 12.236 176.075 11.132C178.163 10.004 180.503 9.44 183.095 9.44C185.207 9.44 187.127 9.788 188.855 10.484C190.583 11.18 192.035 12.2 193.211 13.544L190.259 16.424C188.339 14.504 186.023 13.544 183.311 13.544C181.535 13.544 179.951 13.916 178.559 14.66C177.191 15.404 176.111 16.448 175.319 17.792C174.551 19.136 174.167 20.672 174.167 22.4C174.167 24.08 174.551 25.592 175.319 26.936C176.111 28.28 177.191 29.336 178.559 30.104C179.951 30.872 181.523 31.256 183.275 31.256C185.243 31.256 186.971 30.824 188.459 29.96V22.112ZM216.7 25.496C216.7 25.808 216.676 26.252 216.628 26.828H201.544C201.808 28.244 202.492 29.372 203.596 30.212C204.724 31.028 206.116 31.436 207.772 31.436C209.884 31.436 211.624 30.74 212.992 29.348L215.404 32.12C214.54 33.152 213.448 33.932 212.128 34.46C210.808 34.988 209.32 35.252 207.664 35.252C205.552 35.252 203.692 34.832 202.084 33.992C200.476 33.152 199.228 31.988 198.34 30.5C197.476 28.988 197.044 27.284 197.044 25.388C197.044 23.516 197.464 21.836 198.304 20.348C199.168 18.836 200.356 17.66 201.868 16.82C203.38 15.98 205.084 15.56 206.98 15.56C208.852 15.56 210.52 15.98 211.984 16.82C213.472 17.636 214.624 18.8 215.44 20.312C216.28 21.8 216.7 23.528 216.7 25.496ZM206.98 19.16C205.54 19.16 204.316 19.592 203.308 20.456C202.324 21.296 201.724 22.424 201.508 23.84H212.416C212.224 22.448 211.636 21.32 210.652 20.456C209.668 19.592 208.444 19.16 206.98 19.16ZM231.93 15.56C234.354 15.56 236.298 16.268 237.762 17.684C239.226 19.1 239.958 21.2 239.958 23.984V35H235.458V24.56C235.458 22.88 235.062 21.62 234.27 20.78C233.478 19.916 232.35 19.484 230.886 19.484C229.23 19.484 227.922 19.988 226.962 20.996C226.002 21.98 225.522 23.408 225.522 25.28V35H221.022V15.776H225.306V18.26C226.05 17.372 226.986 16.7 228.114 16.244C229.242 15.788 230.514 15.56 231.93 15.56ZM245.667 15.776H250.167V35H245.667V15.776ZM247.935 12.608C247.119 12.608 246.435 12.356 245.883 11.852C245.331 11.324 245.055 10.676 245.055 9.908C245.055 9.14 245.331 8.504 245.883 8C246.435 7.472 247.119 7.208 247.935 7.208C248.751 7.208 249.435 7.46 249.987 7.964C250.539 8.444 250.815 9.056 250.815 9.8C250.815 10.592 250.539 11.264 249.987 11.816C249.459 12.344 248.775 12.608 247.935 12.608ZM268.313 35L263.381 28.34L258.413 35H253.445L260.933 25.244L253.769 15.776H258.773L263.489 22.076L268.205 15.776H273.065L265.865 25.172L273.389 35H268.313Z" fill="#9A50F0"/>
</svg>
